<svg fill="none" height="694" viewBox="0 0 1000 694" width="1000" xmlns="http://www.w3.org/2000/svg" xmlns:xlink="http://www.w3.org/1999/xlink"><clipPath id="a"><path d="m365.741 212.733h268.518v268.229h-268.518z"/></clipPath><path d="m0 0h1000v693.695h-1000z" fill="#c4c4c4"/><g clip-path="url(#a)" fill="#979797"><path d="m629.63 240.481h-259.259c-2.556 0-4.63 2.067-4.63 4.625v203.484c0 2.557 2.074 4.624 4.63 4.624h259.259c2.556 0 4.63-2.067 4.63-4.624v-203.484c0-2.558-2.074-4.625-4.63-4.625zm-4.63 203.484h-250v-194.235h250z"/><path d="m439.816 342.861c14.217 0 25.782-11.552 25.782-25.75 0-14.207-11.565-25.759-25.782-25.759-14.218 0-25.783 11.552-25.783 25.755 0 14.202 11.565 25.754 25.783 25.754zm0-42.26c9.111 0 16.523 7.409 16.523 16.506 0 9.096-7.412 16.505-16.523 16.505s-16.524-7.404-16.524-16.501c0-9.096 7.413-16.51 16.524-16.51z"/><path d="m398.148 425.467c1.084 0 2.176-.38 3.056-1.152l75.523-66.419 47.694 47.638c1.811 1.809 4.736 1.809 6.547 0 1.81-1.808 1.81-4.731 0-6.539l-22.255-22.23 42.505-46.497 52.134 47.741c1.884 1.725 4.815 1.595 6.542-.287 1.726-1.882 1.601-4.81-.287-6.535l-55.556-50.871c-.907-.828-2.116-1.239-3.333-1.211-1.227.055-2.385.596-3.213 1.503l-45.343 49.608-21.958-21.935c-1.732-1.725-4.5-1.812-6.334-.203l-78.782 69.291c-1.921 1.688-2.106 4.611-.417 6.53.917 1.04 2.195 1.568 3.477 1.568z"/></g></svg>