<svg fill="none" height="30" viewBox="0 0 30 30" width="30" xmlns="http://www.w3.org/2000/svg"><path d="m27.9877 7.83758c-1.3414-2.29822-3.1608-4.11772-5.4588-5.45891-2.2984-1.34127-4.8075-2.011727-7.5291-2.011727-2.7214 0-5.23129.670667-7.52916 2.011727-2.29822 1.34113-4.11758 3.16069-5.45891 5.45891-1.341132 2.29812-2.01173 4.80772-2.01173 7.52872 0 3.2685.953599 6.2076 2.86128 8.8181 1.90747 2.6107 4.37164 4.4172 7.39232 5.4197.3516.0653.6119.0194.7811-.1365.1693-.1561.2539-.3516.2539-.5857 0-.0391-.0034-.3905-.0099-1.0546-.0067-.6642-.0098-1.2436-.0098-1.738l-.4492.0777c-.2865.0525-.6478.0747-1.08403.0684-.43602-.0061-.88868-.0518-1.35734-.1367-.46886-.0842-.90496-.2795-1.30863-.5855-.40347-.306-.68989-.7065-.8592-1.201l-.1953-.4494c-.13018-.2992-.33513-.6316-.61512-.996-.27999-.3647-.56313-.6119-.84955-.7421l-.13675-.0979c-.09112-.065-.17567-.1435-.25386-.2345-.07812-.0911-.13661-.1822-.17567-.2734-.03913-.0914-.0067-.1663.09762-.225.10432-.0588.29285-.0873.56641-.0873l.39047.0583c.26043.0522.58256.2081.9668.4687.38404.2603.69974.5988.94717 1.0153.29963.534.66061.9409 1.08399 1.2209.42303.28.84955.4197 1.27915.4197s.80064-.0326 1.11324-.0973c.3123-.0652.6053-.1631.8788-.2932.1172-.8727.4363-1.5432.9569-2.0118-.7421-.078-1.4092-.1955-2.0018-.3516-.59231-.1564-1.20435-.4102-1.83575-.7621-.63175-.3514-1.15582-.7878-1.57235-1.3084-.4166-.5208-.7585-1.2046-1.02522-2.0507-.26686-.8465-.40032-1.823-.40032-2.9297 0-1.5757.51442-2.9166 1.54307-4.0235-.48187-1.18466-.43638-2.51272.1366-3.98403.37761-.11732.9376-.02928 1.67968.26358.74222.29299 1.28569.54397 1.63079.75207.3452.20803.6218.38431.8302.52728 1.2111-.33841 2.461-.50765 3.7499-.50765 1.289 0 2.5391.16924 3.7503.50765l.7422-.46852c.5075-.31262 1.1068-.59911 1.7965-.85954.6901-.26029 1.2178-.33198 1.5825-.21466.5857 1.47137.6379 2.79937.1559 3.98402 1.0286 1.1069 1.5432 2.4481 1.5432 4.0235 0 1.1067-.1339 2.0863-.4004 2.9392-.2667.8531-.6116 1.5363-1.0346 2.0508-.4235.5145-.951.9475-1.5824 1.2988-.6315.3516-1.2437.6054-1.836.7618-.5925.1564-1.2597.2739-2.0018.352.6768.5857 1.0153 1.5102 1.0153 2.7732v4.1206c0 .2341.0814.4296.2443.5857.1628.1559.4198.2018.7714.1365 3.0211-1.0024 5.4853-2.8089 7.3927-5.4196 1.9072-2.6105 2.8611-5.5496 2.8611-8.8182-.0007-2.7206-.6716-5.23-2.0121-7.52812z" fill="#fff"/></svg>