<svg fill="none" height="40" viewBox="0 0 214 40" width="214" xmlns="http://www.w3.org/2000/svg"><g clip-rule="evenodd" fill-rule="evenodd"><path d="m74.3538 31.3663c-1.634 0-3.1716-.295-4.6128-.8851s-2.6951-1.4128-3.7618-2.4681c-1.0667-1.0554-1.9121-2.3093-2.5362-3.7618s-.9362-3.0298-.9362-4.732c0-1.7021.3121-3.2794.9362-4.732.6241-1.4525 1.4695-2.7064 2.5362-3.7617 1.0667-1.05536 2.3206-1.87806 3.7618-2.46815 1.4412-.59008 2.9788-.88512 4.6128-.88512 1.6341 0 3.1717.29504 4.6129.88512 1.4411.59009 2.6951 1.41279 3.7617 2.46815 1.0667 1.0553 1.9121 2.3092 2.5363 3.7617.6241 1.4526.9361 3.0299.9361 4.732 0 1.7022-.312 3.2795-.9361 4.732-.6242 1.4525-1.4696 2.7064-2.5363 3.7618-1.0666 1.0553-2.3206 1.878-3.7617 2.4681-1.4412.5901-2.9788.8851-4.6129.8851z" fill="#2ab6ef"/><path d="m98.0482 31.3663c-1.6341 0-3.1717-.295-4.6129-.8851-1.4411-.5901-2.695-1.4128-3.7617-2.4681-1.0667-1.0554-1.9121-2.3093-2.5362-3.7618-.6242-1.4525-.9362-3.0298-.9362-4.732 0-1.7021.312-3.2794.9362-4.732.6241-1.4525 1.4695-2.7064 2.5362-3.7617 1.0667-1.05536 2.3206-1.87806 3.7617-2.46815 1.4412-.59008 2.9788-.88512 4.6129-.88512s3.1718.29504 4.6128.88512c1.441.59009 2.695 1.41279 3.762 2.46815 1.066 1.0553 1.912 2.3092 2.536 3.7617.624 1.4526.936 3.0299.936 4.732 0 1.7022-.312 3.2795-.936 4.732s-1.47 2.7064-2.536 3.7618c-1.067 1.0553-2.321 1.878-3.762 2.4681s-2.9787.8851-4.6128.8851z" fill="#2ecc71"/><path d="m177.705 31.3663c-1.634 0-3.172-.295-4.613-.8851s-2.695-1.4128-3.762-2.4681c-1.066-1.0554-1.912-2.3093-2.536-3.7618s-.936-3.0298-.936-4.732c0-1.7021.312-3.2794.936-4.732.624-1.4525 1.47-2.7064 2.536-3.7617 1.067-1.05536 2.321-1.87806 3.762-2.46815 1.441-.59008 2.979-.88512 4.613-.88512s3.172.29504 4.613.88512c1.441.59009 2.695 1.41279 3.762 2.46815 1.066 1.0553 1.912 2.3092 2.536 3.7617.624 1.4526.936 3.0299.936 4.732 0 1.7022-.312 3.2795-.936 4.732s-1.47 2.7064-2.536 3.7618c-1.067 1.0553-2.321 1.878-3.762 2.4681s-2.979.8851-4.613.8851z" fill="#e44786"/><path d="m153.898 31.3659c.038.0003.075.0004.113.0004 1.634 0 3.172-.295 4.613-.8851s2.695-1.4128 3.762-2.4681c1.066-1.0554 1.912-2.3093 2.536-3.7618s.936-3.0298.936-4.732c0-1.7021-.312-3.2794-.936-4.732-.624-1.4525-1.47-2.7064-2.536-3.7617-1.067-1.05537-2.321-1.87807-3.762-2.46815s-2.979-.88512-4.613-.88512c-.038 0-.075.00016-.113.00047z" fill="#efcb2a"/><path d="m201.399 31.4363c-1.634 0-3.171-.2959-4.613-.8877-1.441-.5919-2.695-1.417-3.761-2.4755-1.067-1.0584-1.912-2.316-2.537-3.7728-.624-1.4568-.936-3.0388-.936-4.746s.312-3.2891.936-4.746c.625-1.4568 1.47-2.7144 2.537-3.7728 1.066-1.05848 2.32-1.88361 3.761-2.47543 1.442-.59183 2.979-.88774 4.613-.88774s3.172.29591 4.613.88774c1.441.59182 2.695 1.41695 3.762 2.47543 1.067 1.0584 1.912 2.316 2.536 3.7728.624 1.4569.936 3.0388.936 4.746s-.312 3.2892-.936 4.746-1.469 2.7144-2.536 3.7728c-1.067 1.0585-2.321 1.8836-3.762 2.4755-1.441.5918-2.979.8877-4.613.8877z" fill="#d0021b"/><path d="m154.65 2.85774c-.197 0-.382-.03559-.556-.10676s-.325-.17039-.454-.29768c-.129-.12728-.231-.27852-.306-.45371-.075-.17518-.113-.36542-.113-.57072s.038-.39554.113-.570728.177-.326422.306-.453707c.129-.127284.28-.22651.454-.29768.174-.0711705.359-.106755.556-.106755s.383.0355845.556.106755c.174.07117.325.170396.454.29768.129.127285.231.278519.306.453707s.113.365428.113.570728-.038.39554-.113.57072c-.075.17519-.177.32643-.306.45371-.129.12729-.28.22651-.454.29768-.173.07117-.359.10676-.556.10676z" fill="#bcbcbc"/><g fill="#fff"><path d="m131.747 39.5495c-2.26 0-4.374-.4026-6.34-1.2077s-3.685-1.9199-5.156-3.3443-2.624-3.1275-3.46-5.1094c-.836-1.9818-1.254-4.1494-1.254-6.5028 0-2.3225.418-4.4746 1.254-6.4564.836-1.9819 1.982-3.6927 3.437-5.1326 1.455-1.44 3.151-2.56247 5.086-3.36759 1.936-.80512 4.018-1.20767 6.248-1.20767 2.725 0 5.194.49545 7.408 1.48636 2.214.99092 4.126 2.5857 5.737 4.7842l-1.162.8361c-1.393-1.9508-3.096-3.3985-5.109-4.34295-2.013-.94447-4.304-1.41669-6.874-1.41669-2.075 0-3.995.37159-5.76 1.11477-1.765.74317-3.298 1.78057-4.599 3.11207-1.3 1.3316-2.314 2.8953-3.042 4.6914-.728 1.796-1.092 3.7623-1.092 5.899 0 2.1366.372 4.1029 1.115 5.899.743 1.796 1.773 3.3598 3.089 4.6913 1.316 1.3316 2.864 2.3689 4.645 3.1121s3.724 1.1148 5.829 1.1148c2.168 0 4.057-.3019 5.667-.9058 1.61-.6038 2.965-1.3857 4.064-2.3456 1.1-.96 1.974-2.0361 2.625-3.2282.65-1.1922 1.099-2.3767 1.347-3.5534h-13.145v-1.3006h14.77c-.247 1.7651-.758 3.4218-1.532 4.9701-.775 1.5483-1.804 2.8875-3.089 4.0178s-2.826 2.0283-4.622 2.694c-1.796.6658-3.824.9987-6.085.9987z"/><path d="m153.898 7.67233h1.488v32.32767h-1.488z"/><path d="m29.7064 6.99539h.1858l11.6122 23.22451 11.6587-23.22451h.1858l3.5301 32.23561h-1.3934l-3.0657-27.823-10.9155 21.5988h-.1393l-10.7762-21.6452-3.0656 27.8694h-1.347z"/><path d="m1.25412 32.6751c.89802 1.7341 2.13664 3.0888 3.71592 4.0642 1.57927.9755 3.39076 1.4632 5.43456 1.4632 2.5392 0 4.4978-.6039 5.8758-1.8115 1.3779-1.2077 2.0669-2.787 2.0669-4.7378 0-.96-.1316-1.8193-.3948-2.5779-.2632-.7587-.6658-1.4554-1.2077-2.0902s-1.2386-1.2309-2.0902-1.7883c-.8515-.5574-1.8502-1.1148-2.9959-1.6722l-2.87985-1.3935c-1.11478-.5573-2.09794-1.0915-2.94951-1.6024-.85157-.511-1.57152-1.0684-2.15987-1.6722-.58836-.6038-1.02962-1.2773-1.3238-2.0205s-.44126-1.6257-.44126-2.6476c0-1.0529.20127-2.0128.60383-2.8799.40256-.867.94446-1.60244 1.62572-2.20628.68125-.60384 1.48636-1.06832 2.41534-1.39347.92898-.32514 1.91988-.48771 2.97273-.48771 1.91987 0 3.53787.3561 4.85387 1.06832 1.3161.71222 2.4541 1.84244 3.414 3.39074l-1.1147.6503c-.8052-1.3006-1.7806-2.2605-2.9263-2.87981-1.1458-.61932-2.5547-.92898-4.22687-.92898-1.827 0-3.31335.53416-4.4591 1.60249-1.14574 1.0683-1.71861 2.4231-1.71861 4.0643 0 .867.12387 1.6102.37159 2.2295.24773.6194.61932 1.1767 1.11478 1.6722.49546.4954 1.12251.9677 1.88118 1.4167s1.66442.9212 2.71726 1.4167l2.83337 1.3934c1.3316.6503 2.4695 1.3006 3.414 1.9509s1.7186 1.347 2.3225 2.0902c.6038.7432 1.0528 1.5483 1.347 2.4153.2942.8671.4412 1.827.4412 2.8799 0 2.3534-.8205 4.2578-2.4617 5.7132-1.6413 1.4554-3.9482 2.1831-6.9209 2.1831-2.50829 0-4.6217-.5651-6.34032-1.6954-1.71862-1.1302-3.073364-2.6243-4.06428-4.4823z"/></g></g><g fill="#e2e2e2"><path d="m62.5068 37.0078h47.388v2.25657h-47.388z" opacity=".25"/><path d="m165.858 37.4591h47.388v2.25657h-47.388z" opacity=".25"/></g></svg>