<svg fill="none" height="30" viewBox="0 0 30 30" width="30" xmlns="http://www.w3.org/2000/svg" xmlns:xlink="http://www.w3.org/1999/xlink"><clipPath id="a"><path d="m.000244 0h30v30h-30z"/></clipPath><g clip-path="url(#a)" fill="#fff"><path d="m24.2899 20.808c-.119 0-.238-.0436-.3308-.1316l-5.5663-5.2218c-.1944-.1819-.2041-.4886-.0212-.683.1828-.1964.4875-.2051.6839-.0213l5.5662 5.2219c.1944.1818.2041.4885.0213.6829-.0958.1016-.2235.1529-.3531.1529z"/><path d="m5.70975 20.808c-.12866 0-.25732-.0513-.35309-.1529-.18283-.1944-.17316-.5011.02128-.6829l5.56816-5.2219c.1954-.1819.5021-.1741.6839.0213.1829.1944.1732.5011-.0212.683l-5.56821 5.2218c-.09287.088-.21185.1316-.33084.1316z"/><path d="m27.5818 25.6632h-25.16314c-1.33303 0-2.41841586-1.0844-2.41841586-2.4184v-16.49069c0-1.334 1.08538586-2.41842 2.41841586-2.41842h25.16314c1.3331 0 2.4184 1.08442 2.4184 2.41842v16.49069c0 1.334-1.0853 2.4184-2.4184 2.4184zm-25.16314-20.36014c-.80001 0-1.451048.65104-1.451048 1.45105v16.49069c0 .8.651038 1.4511 1.451048 1.4511h25.16314c.8 0 1.4511-.6511 1.4511-1.4511v-16.49069c0-.80001-.6511-1.45105-1.4511-1.45105z"/><path d="m15.001 17.4301c-.6433 0-1.2866-.2138-1.7761-.6404l-12.420972-10.83551c-.201212-.1751-.222494-.48079-.047401-.68297.177029-.20121.481753-.21959.682963-.04643l12.42101 10.83451c.6181.5388 1.6629.5388 2.2801 0l12.4055-10.8171c.2002-.17509.505-.15574.683.04644.1751.20218.1547.5069-.0465.68296l-12.4055 10.8171c-.4905.4276-1.1328.6414-1.7761.6414z"/></g></svg>