<svg fill="none" height="30" viewBox="0 0 30 30" width="30" xmlns="http://www.w3.org/2000/svg" xmlns:xlink="http://www.w3.org/1999/xlink"><clipPath id="a"><path d="m0 0h30v30h-30z"/></clipPath><g clip-path="url(#a)"><path d="m29.8281 5.5299c-.1528-.15274-.4074-.20367-.6111-.15274l-1.0184.35647c.6111-.71287 1.0184-1.47668 1.273-2.18955.1019-.2546.0509-.45827-.1018-.61106-.1528-.15274-.4074-.20367-.6111-.10187-1.4258.61107-2.6478 1.12027-3.6662 1.42574 0 .05094-.051 0-.1019 0-.8147-.45827-2.8006-1.47667-4.2263-1.47667-3.6154.05093-6.5178 3.10614-6.5178 6.82329v.20367c-5.29569-1.0184-8.1981-2.54601-11.35517-5.85582l-.50909-.5092-.30553.61107c-1.731273 3.30981-.5092 6.31407 1.47667 8.35087-.91654-.1527-1.5276-.4582-2.08773-.9165-.20367-.1528-.45827-.2037-.712875-.051-.203669.1019-.305533.4074-.254601.662.712866 2.3932 2.495076 4.3282 4.430016 5.4993-.91654 0-1.68034-.1018-2.44414-.611-.20367-.1019-.5092-.1019-.71287.0509s-.30553.4073-.20367.6619c.91654 2.597 2.69874 3.9718 5.55028 4.3283-1.47667.8656-3.41161 1.5785-6.415889 1.6294-.305532 0-.560133.2037-.6619382.4583-.1018638.3055 0 .5601.2036692.7638 1.833138 1.4767 5.906688 2.3423 10.947768 2.3423 8.9619 0 16.2944-7.9944 16.2944-17.82196v-.15273c1.1203-.56014 2.0368-1.62947 2.4951-3.10615.0509-.20372-.0001-.45832-.1528-.61106zm-3.0552 2.90241-.3056.10187v.86566c0 9.26746-6.8742 16.80356-15.276 16.80356-4.6337 0-7.73978-.7638-9.42012-1.5785 3.51348-.2546 5.55028-1.3749 7.12882-2.5969l1.273-.9166h-1.5276c-2.90241 0-4.68462-.8147-5.70302-2.7497.91654.3056 1.88401.3056 2.95334.2546.40734-.0509.81474-.0509 1.22207-.0509l.15274-1.0184c-1.93494-.5601-4.22635-2.2914-5.34661-4.6337 1.0184.4583 2.13861.5602 3.15701.5602h1.57854l-1.27295-.9166c-1.06933-.7638-4.22635-3.46259-2.69874-7.33253 3.25887 3.20794 6.36502 4.68462 11.96622 5.70303l.611.1019v-1.42579c0-3.15701 2.4442-5.75395 5.4994-5.80489 1.1711-.05093 3.1061 1.01841 3.6662 1.32394.3055.15274.6111.20367.9165.10186.7638-.2546 1.6804-.61106 2.6988-1.0184-.4583.7638-1.0694 1.47667-1.884 2.13867-.2037.15274-.2546.45827-.1528.71287.1019.2546.4074.35647.662.2546l1.9858-.66194c-.3564.66188-.9166 1.42569-1.884 1.78209z" fill="#fff"/></g></svg>